<svg width="186" height="161" viewBox="0 0 186 161" xmlns="http://www.w3.org/2000/svg" xmlns:xlink="http://www.w3.org/1999/xlink"><defs><path id="a" d="M67.56 93.855V.423H.08v93.432z"/></defs><g fill="none" fill-rule="evenodd"><path d="M.385 55.822C-1.387 27.898 25.41-1.314 42.968 1.05c11.277 1.503 11.062 14.98 33.67 33.668 18.687 15.465 28.138 13.854 32.22 24.326 6.067 15.572-6.5 40.274-24.327 48.705C54.354 121.98 2.75 92.604.386 55.82" fill="#F2F3F4"/><g transform="translate(117.5 .077)"><mask id="b" fill="#fff"><use xlink:href="#a"/></mask><path d="M4.996 1.347c-11.277 5.478-.59 36.408 6.55 51.175 7.412 15.304 25.67 43.604 40.007 41.187 11.6-1.988 18.365-23.575 15.25-40.812C60.79 20.303 17.724-4.774 4.997 1.348" fill="#F2F3F4" mask="url(#b)"/></g><path d="M131.088 104.903c-10.632-3.33-22.66 5.423-28.62 13.263-6.07 8-11.44 22.554-4.673 32.596 8.592 12.78 33.508 13.263 44.41.375 12.135-14.445 3.65-41.562-11.117-46.234" fill="#F2F3F4"/><path fill="#D4DADD" d="M43.786 104.497l101.49-8.807L163 40.38H32.938"/><path stroke="#576266" stroke-width="2" stroke-linecap="round" stroke-linejoin="round" d="M43.786 104.497l101.49-8.807L163 40.38H32.938"/><path d="M35 56.533V40.38M45 103.03V40.38M55 101.706V40.38M64 100.972V40.38M74 100.24v-59.86M84 98.916V40.38M94 98.182V40.38M104 97.538V40.38M114 96.782V40.38M124 96.037V40.38M133 95.247V40.38M143 94.512V40.38M153 66.708V40.38M34.71 48h124.68M36.1 58h121.074M37.297 67h117.06M38.896 76h112.49M40.684 85h107.733M42.36 95h102.917" stroke="#ACB5B7" stroke-width="2" stroke-linecap="round" stroke-linejoin="round"/><path stroke="#576266" stroke-width="2" stroke-linecap="round" stroke-linejoin="round" d="M43.786 104.497l101.49-8.807L163 40.38H32.938"/><path d="M147.11 94.51l-103.816 8.666L30.22 26.833c-.165-.96-.996-1.66-1.97-1.66h-6.392c-1.104 0-1.998.894-1.998 1.997 0 1.103.894 1.998 1.998 1.998h4.707l15.9 92.834c.164.96.995 1.66 1.968 1.66h92.417c1.103 0 1.998-.894 1.998-1.997 0-1.103-.895-1.998-1.998-1.998H46.12L43.97 107.13l103.47-8.637c1.1-.092 1.916-1.058 1.824-2.157-.09-1.1-1.06-1.917-2.157-1.825" fill="#FCFCFC"/><path d="M147.11 94.51l-103.816 8.666L30.22 26.833c-.165-.96-.996-1.66-1.97-1.66h-6.392c-1.104 0-1.998.894-1.998 1.997 0 1.103.894 1.998 1.998 1.998h4.707l15.9 92.834c.164.96.995 1.66 1.968 1.66h92.417c1.103 0 1.998-.894 1.998-1.997 0-1.103-.895-1.998-1.998-1.998H46.12L43.97 107.13l103.47-8.637c1.1-.092 1.916-1.058 1.824-2.157-.09-1.1-1.06-1.917-2.157-1.825z" stroke="#576266" stroke-width="2" stroke-linecap="round" stroke-linejoin="round"/><path d="M4.63 23.51h16.536v7.26H4.63C2.626 30.77 1 29.146 1 27.14s1.625-3.63 3.63-3.63" fill="#3BAAE0"/><path d="M4.63 23.51h16.536v7.26H4.63C2.626 30.77 1 29.146 1 27.14s1.625-3.63 3.63-3.63z" stroke="#576266" stroke-width="2" stroke-linecap="round" stroke-linejoin="round"/><path d="M124.537 124.127c5.04 0 9.13 4.087 9.13 9.13 0 5.04-4.09 9.127-9.13 9.127-5.042 0-9.13-4.087-9.13-9.128 0-5.042 4.088-9.13 9.13-9.13" fill="#ACB5B7"/><path d="M124.537 124.127c5.04 0 9.13 4.087 9.13 9.13 0 5.04-4.09 9.127-9.13 9.127-5.042 0-9.13-4.087-9.13-9.128 0-5.042 4.088-9.13 9.13-9.13z" stroke="#576266" stroke-width="2" stroke-linecap="round" stroke-linejoin="round"/><path d="M124.537 128.906c2.402 0 4.35 1.947 4.35 4.35 0 2.402-1.948 4.35-4.35 4.35-2.402 0-4.35-1.948-4.35-4.35 0-2.403 1.948-4.35 4.35-4.35" fill="#8F9293"/><path fill="#3BAAE0" d="M130.014 117.95h-10.9l2.147 15.305h6.606"/><path stroke="#576266" stroke-width="2" stroke-linecap="round" stroke-linejoin="round" d="M130.014 117.95h-10.9l2.147 15.305h6.606z"/><path d="M61.816 124.127c5.042 0 9.13 4.087 9.13 9.13 0 5.04-4.088 9.127-9.13 9.127-5.04 0-9.13-4.087-9.13-9.128.002-5.042 4.09-9.13 9.13-9.13" fill="#ACB5B7"/><path d="M61.816 124.127c5.042 0 9.13 4.087 9.13 9.13 0 5.04-4.088 9.127-9.13 9.127-5.04 0-9.13-4.087-9.13-9.128.002-5.042 4.09-9.13 9.13-9.13z" stroke="#576266" stroke-width="2" stroke-linecap="round" stroke-linejoin="round"/><path d="M61.816 128.906c2.403 0 4.35 1.947 4.35 4.35 0 2.402-1.947 4.35-4.35 4.35-2.402 0-4.35-1.948-4.35-4.35 0-2.403 1.948-4.35 4.35-4.35" fill="#8F9293"/><path fill="#3BAAE0" d="M67.24 117.95H56.393l2.148 15.305h6.552"/><path stroke="#576266" stroke-width="2" stroke-linecap="round" stroke-linejoin="round" d="M67.24 117.95H56.393l2.148 15.305h6.552z"/><path d="M133.666 26.37c-1.58 0-2.86-1.28-2.86-2.86 0-1.58 1.28-2.86 2.86-2.86 1.58 0 2.86 1.28 2.86 2.86 0 1.58-1.28 2.86-2.86 2.86" fill="#FFF"/><path d="M133.666 26.37c-1.58 0-2.86-1.28-2.86-2.86 0-1.58 1.28-2.86 2.86-2.86 1.58 0 2.86 1.28 2.86 2.86 0 1.58-1.28 2.86-2.86 2.86z" stroke="#576266" stroke-width="2" stroke-linecap="round" stroke-linejoin="round"/><path d="M11.083 67.813c-1.58 0-2.86-1.28-2.86-2.86 0-1.58 1.28-2.86 2.86-2.86 1.58 0 2.86 1.28 2.86 2.86 0 1.58-1.28 2.86-2.86 2.86" fill="#FFF"/><path d="M11.083 67.813c-1.58 0-2.86-1.28-2.86-2.86 0-1.58 1.28-2.86 2.86-2.86 1.58 0 2.86 1.28 2.86 2.86 0 1.58-1.28 2.86-2.86 2.86z" stroke="#576266" stroke-width="2" stroke-linecap="round" stroke-linejoin="round"/><path fill="#FFF" d="M96.126 41.897L94.73 46.42l-1.394-4.523-4.523-1.395 4.523-1.395 1.395-4.523 1.396 4.523 4.523 1.395"/><path stroke="#576266" stroke-width="2" stroke-linecap="round" stroke-linejoin="round" d="M96.126 41.897L94.73 46.42l-1.394-4.523-4.523-1.395 4.523-1.395 1.395-4.523 1.396 4.523 4.523 1.395z"/><path d="M160.967 48.72c-.202 0-.408-.032-.61-.097-1.05-.336-1.63-1.46-1.293-2.512l1.196-3.732h-4.476c-1.103 0-1.998-.894-1.998-1.998 0-1.103.895-1.998 1.998-1.998h7.214c.638 0 1.238.305 1.614.82.376.516.483 1.18.29 1.788l-2.033 6.34c-.273.848-1.058 1.39-1.903 1.39" fill="#C3C3C9"/><path d="M160.967 48.72c-.202 0-.408-.032-.61-.097-1.05-.336-1.63-1.46-1.293-2.512l1.196-3.732h-4.476c-1.103 0-1.998-.894-1.998-1.998 0-1.103.895-1.998 1.998-1.998h7.214c.638 0 1.238.305 1.614.82.376.516.483 1.18.29 1.788l-2.033 6.34c-.273.848-1.058 1.39-1.903 1.39z" stroke="#576266" stroke-width="2" stroke-linecap="round" stroke-linejoin="round"/><path fill="#FFF" d="M155.122 65.463l-2.665 8.642-2.665-8.642-8.642-2.665 8.642-2.665 2.665-8.643 2.665 8.643 8.642 2.665"/><path stroke="#576266" stroke-width="2" stroke-linecap="round" stroke-linejoin="round" d="M155.122 65.463l-2.665 8.642-2.665-8.642-8.642-2.665 8.642-2.665 2.665-8.643 2.665 8.643 8.642 2.665z"/><path fill="#FFF" d="M71.215 82.592l-1.813 5.88-1.814-5.88-5.88-1.813 5.88-1.815 1.814-5.88 1.813 5.88 5.88 1.814"/><path stroke="#576266" stroke-width="2" stroke-linecap="round" stroke-linejoin="round" d="M71.215 82.592l-1.813 5.88-1.814-5.88-5.88-1.813 5.88-1.815 1.814-5.88 1.813 5.88 5.88 1.814z"/></g></svg>